<mxfile host="app.diagrams.net" agent="Mozilla/5.0 (Windows NT 10.0; Win64; x64; rv:138.0) Gecko/20100101 Firefox/138.0" version="27.1.1">
  <diagram id="98tsSFIsKfaqDPnpfn0B" name="Page-1">
    <mxGraphModel dx="1527" dy="1252" grid="1" gridSize="10" guides="1" tooltips="1" connect="1" arrows="1" fold="1" page="1" pageScale="1" pageWidth="850" pageHeight="1100" math="0" shadow="0">
      <root>
        <mxCell id="0" />
        <mxCell id="1" parent="0" />
        <mxCell id="3" value="User Launches App" style="whiteSpace=wrap;strokeWidth=2;" parent="1" vertex="1">
          <mxGeometry x="1602" y="112" width="195" height="54" as="geometry" />
        </mxCell>
        <mxCell id="4" value="Printer Setup Confirmed?" style="rhombus;strokeWidth=2;whiteSpace=wrap;" parent="1" vertex="1">
          <mxGeometry x="1609" y="216" width="181" height="181" as="geometry" />
        </mxCell>
        <mxCell id="LI0zPFGkmaJQVHpyA1I5-81" value="" style="edgeStyle=orthogonalEdgeStyle;rounded=0;orthogonalLoop=1;jettySize=auto;html=1;" edge="1" parent="1" source="5" target="LI0zPFGkmaJQVHpyA1I5-73">
          <mxGeometry relative="1" as="geometry" />
        </mxCell>
        <mxCell id="5" value="Select the Network Printer Tab" style="whiteSpace=wrap;strokeWidth=2;" parent="1" vertex="1">
          <mxGeometry x="1442.5" y="859" width="182" height="54" as="geometry" />
        </mxCell>
        <mxCell id="6" value="Click the &quot;Printer Setup&quot; Button" style="whiteSpace=wrap;strokeWidth=2;" parent="1" vertex="1">
          <mxGeometry x="1288" y="488" width="221" height="54" as="geometry" />
        </mxCell>
        <mxCell id="8" value="Using Nocai Printer or&#xa;Network-Attached Printer?" style="rhombus;strokeWidth=2;whiteSpace=wrap;" parent="1" vertex="1">
          <mxGeometry x="1308" y="598" width="181" height="181" as="geometry" />
        </mxCell>
        <mxCell id="LI0zPFGkmaJQVHpyA1I5-80" value="" style="edgeStyle=orthogonalEdgeStyle;rounded=0;orthogonalLoop=1;jettySize=auto;html=1;" edge="1" parent="1" source="9" target="LI0zPFGkmaJQVHpyA1I5-75">
          <mxGeometry relative="1" as="geometry" />
        </mxCell>
        <mxCell id="9" value="Select the Nocai Tab" style="whiteSpace=wrap;strokeWidth=2;" parent="1" vertex="1">
          <mxGeometry x="1177" y="859" width="180" height="54" as="geometry" />
        </mxCell>
        <mxCell id="32" value="" style="curved=1;startArrow=none;endArrow=block;exitX=0.5;exitY=1;entryX=0.5;entryY=0;" parent="1" source="3" target="4" edge="1">
          <mxGeometry relative="1" as="geometry">
            <Array as="points" />
          </mxGeometry>
        </mxCell>
        <mxCell id="34" value="No" style="curved=1;startArrow=none;endArrow=block;exitX=0.18;exitY=1;entryX=0.5;entryY=-0.01;" parent="1" source="4" target="6" edge="1">
          <mxGeometry relative="1" as="geometry">
            <Array as="points">
              <mxPoint x="1618" y="433" />
            </Array>
          </mxGeometry>
        </mxCell>
        <mxCell id="36" value="" style="curved=1;startArrow=none;endArrow=block;exitX=0.5;exitY=1;entryX=0.5;entryY=0;exitDx=0;exitDy=0;" parent="1" source="6" target="8" edge="1">
          <mxGeometry relative="1" as="geometry">
            <Array as="points" />
            <mxPoint x="1448" y="646" as="sourcePoint" />
          </mxGeometry>
        </mxCell>
        <mxCell id="LI0zPFGkmaJQVHpyA1I5-72" value="Press &quot;Confirm&quot; Button to Save Printer Settings" style="whiteSpace=wrap;strokeWidth=2;" vertex="1" parent="1">
          <mxGeometry x="1308" y="1087" width="180" height="54" as="geometry" />
        </mxCell>
        <mxCell id="LI0zPFGkmaJQVHpyA1I5-73" value="Select Desired Network Printer Using the Drop-Down Menu&#xa;(Use the &quot;Refresh&quot; Button to Search for New Printer)" style="whiteSpace=wrap;strokeWidth=2;fontSize=11;" vertex="1" parent="1">
          <mxGeometry x="1442.5" y="973" width="180" height="54" as="geometry" />
        </mxCell>
        <mxCell id="LI0zPFGkmaJQVHpyA1I5-75" value="Select Desired Printer Using&#xa;the Drop-Down Menu" style="whiteSpace=wrap;strokeWidth=2;" vertex="1" parent="1">
          <mxGeometry x="1177" y="973" width="180" height="54" as="geometry" />
        </mxCell>
        <mxCell id="LI0zPFGkmaJQVHpyA1I5-78" value="" style="endArrow=classic;html=1;rounded=0;exitX=0.5;exitY=1;exitDx=0;exitDy=0;entryX=0.5;entryY=0;entryDx=0;entryDy=0;" edge="1" parent="1" source="LI0zPFGkmaJQVHpyA1I5-75" target="LI0zPFGkmaJQVHpyA1I5-72">
          <mxGeometry width="50" height="50" relative="1" as="geometry">
            <mxPoint x="1378" y="987" as="sourcePoint" />
            <mxPoint x="1428" y="937" as="targetPoint" />
          </mxGeometry>
        </mxCell>
        <mxCell id="LI0zPFGkmaJQVHpyA1I5-79" value="" style="endArrow=classic;html=1;rounded=0;exitX=0.5;exitY=1;exitDx=0;exitDy=0;entryX=0.5;entryY=0;entryDx=0;entryDy=0;" edge="1" parent="1" source="LI0zPFGkmaJQVHpyA1I5-73" target="LI0zPFGkmaJQVHpyA1I5-72">
          <mxGeometry width="50" height="50" relative="1" as="geometry">
            <mxPoint x="1578" y="1127" as="sourcePoint" />
            <mxPoint x="1628" y="1077" as="targetPoint" />
          </mxGeometry>
        </mxCell>
        <mxCell id="LI0zPFGkmaJQVHpyA1I5-83" value="Create New Job or&#xa;Load Saved Job" style="rhombus;strokeWidth=2;whiteSpace=wrap;" vertex="1" parent="1">
          <mxGeometry x="1890" y="416.5" width="181" height="181" as="geometry" />
        </mxCell>
        <mxCell id="LI0zPFGkmaJQVHpyA1I5-85" value="" style="curved=1;endArrow=classic;html=1;rounded=0;exitX=0.5;exitY=1;exitDx=0;exitDy=0;entryX=0;entryY=0;entryDx=0;entryDy=0;" edge="1" parent="1" source="LI0zPFGkmaJQVHpyA1I5-72" target="LI0zPFGkmaJQVHpyA1I5-83">
          <mxGeometry width="50" height="50" relative="1" as="geometry">
            <mxPoint x="1615" y="1020" as="sourcePoint" />
            <mxPoint x="2085" y="430" as="targetPoint" />
            <Array as="points">
              <mxPoint x="1705" y="1320" />
              <mxPoint x="1670" y="750" />
              <mxPoint x="1700" y="510" />
              <mxPoint x="1760" y="450" />
              <mxPoint x="1850" y="440" />
            </Array>
          </mxGeometry>
        </mxCell>
        <mxCell id="LI0zPFGkmaJQVHpyA1I5-101" value="" style="edgeStyle=orthogonalEdgeStyle;rounded=0;orthogonalLoop=1;jettySize=auto;html=1;" edge="1" parent="1" source="LI0zPFGkmaJQVHpyA1I5-88" target="LI0zPFGkmaJQVHpyA1I5-90">
          <mxGeometry relative="1" as="geometry" />
        </mxCell>
        <mxCell id="LI0zPFGkmaJQVHpyA1I5-88" value="Press the &quot;New Job&quot; Button" style="whiteSpace=wrap;strokeWidth=2;" vertex="1" parent="1">
          <mxGeometry x="1760" y="663.5" width="180" height="54" as="geometry" />
        </mxCell>
        <mxCell id="LI0zPFGkmaJQVHpyA1I5-104" value="" style="edgeStyle=orthogonalEdgeStyle;rounded=0;orthogonalLoop=1;jettySize=auto;html=1;entryX=0;entryY=0.5;entryDx=0;entryDy=0;" edge="1" parent="1" source="LI0zPFGkmaJQVHpyA1I5-89" target="LI0zPFGkmaJQVHpyA1I5-118">
          <mxGeometry relative="1" as="geometry">
            <mxPoint x="2109.9999999999995" y="794.5" as="targetPoint" />
          </mxGeometry>
        </mxCell>
        <mxCell id="LI0zPFGkmaJQVHpyA1I5-89" value="Press the &quot;Load Job&quot; Button, Then Select the Desired Saved JSON Job File" style="whiteSpace=wrap;strokeWidth=2;" vertex="1" parent="1">
          <mxGeometry x="2020" y="663.5" width="180" height="54" as="geometry" />
        </mxCell>
        <mxCell id="LI0zPFGkmaJQVHpyA1I5-121" value="" style="edgeStyle=orthogonalEdgeStyle;rounded=0;orthogonalLoop=1;jettySize=auto;html=1;" edge="1" parent="1" source="LI0zPFGkmaJQVHpyA1I5-90" target="LI0zPFGkmaJQVHpyA1I5-111">
          <mxGeometry relative="1" as="geometry" />
        </mxCell>
        <mxCell id="LI0zPFGkmaJQVHpyA1I5-90" value="Click on the Desired Job to Edit Image and Other Job Settings" style="whiteSpace=wrap;strokeWidth=2;" vertex="1" parent="1">
          <mxGeometry x="1890" y="802" width="180" height="54" as="geometry" />
        </mxCell>
        <mxCell id="LI0zPFGkmaJQVHpyA1I5-92" value="" style="endArrow=classic;html=1;rounded=0;exitX=0;exitY=1;exitDx=0;exitDy=0;entryX=0.5;entryY=0;entryDx=0;entryDy=0;" edge="1" parent="1" source="LI0zPFGkmaJQVHpyA1I5-83" target="LI0zPFGkmaJQVHpyA1I5-88">
          <mxGeometry relative="1" as="geometry">
            <mxPoint x="1900" y="850" as="sourcePoint" />
            <mxPoint x="2000" y="850" as="targetPoint" />
          </mxGeometry>
        </mxCell>
        <mxCell id="LI0zPFGkmaJQVHpyA1I5-93" value="New Job" style="edgeLabel;resizable=0;html=1;;align=center;verticalAlign=middle;" connectable="0" vertex="1" parent="LI0zPFGkmaJQVHpyA1I5-92">
          <mxGeometry relative="1" as="geometry" />
        </mxCell>
        <mxCell id="LI0zPFGkmaJQVHpyA1I5-94" value="" style="endArrow=classic;html=1;rounded=0;exitX=1;exitY=1;exitDx=0;exitDy=0;entryX=0.5;entryY=0;entryDx=0;entryDy=0;" edge="1" parent="1" source="LI0zPFGkmaJQVHpyA1I5-83" target="LI0zPFGkmaJQVHpyA1I5-89">
          <mxGeometry relative="1" as="geometry">
            <mxPoint x="2120" y="540" as="sourcePoint" />
            <mxPoint x="2090" y="980" as="targetPoint" />
          </mxGeometry>
        </mxCell>
        <mxCell id="LI0zPFGkmaJQVHpyA1I5-95" value="Saved Job" style="edgeLabel;resizable=0;html=1;;align=center;verticalAlign=middle;" connectable="0" vertex="1" parent="LI0zPFGkmaJQVHpyA1I5-94">
          <mxGeometry relative="1" as="geometry" />
        </mxCell>
        <mxCell id="LI0zPFGkmaJQVHpyA1I5-128" value="" style="edgeStyle=orthogonalEdgeStyle;rounded=0;orthogonalLoop=1;jettySize=auto;html=1;" edge="1" parent="1" source="LI0zPFGkmaJQVHpyA1I5-98" target="LI0zPFGkmaJQVHpyA1I5-114">
          <mxGeometry relative="1" as="geometry">
            <Array as="points">
              <mxPoint x="1800" y="1290" />
            </Array>
          </mxGeometry>
        </mxCell>
        <mxCell id="LI0zPFGkmaJQVHpyA1I5-98" value="Click the &quot;Upload Image&quot; Button and Select the Desired Image" style="whiteSpace=wrap;strokeWidth=2;" vertex="1" parent="1">
          <mxGeometry x="1709.5" y="1170" width="180" height="54" as="geometry" />
        </mxCell>
        <mxCell id="LI0zPFGkmaJQVHpyA1I5-105" value="" style="endArrow=classic;html=1;rounded=0;exitX=1;exitY=1;exitDx=0;exitDy=0;entryX=0.5;entryY=0;entryDx=0;entryDy=0;" edge="1" parent="1" source="8" target="5">
          <mxGeometry relative="1" as="geometry">
            <mxPoint x="1770" y="850" as="sourcePoint" />
            <mxPoint x="1870" y="850" as="targetPoint" />
          </mxGeometry>
        </mxCell>
        <mxCell id="LI0zPFGkmaJQVHpyA1I5-106" value="Network Printer" style="edgeLabel;resizable=0;html=1;;align=center;verticalAlign=middle;" connectable="0" vertex="1" parent="LI0zPFGkmaJQVHpyA1I5-105">
          <mxGeometry relative="1" as="geometry" />
        </mxCell>
        <mxCell id="LI0zPFGkmaJQVHpyA1I5-107" value="" style="endArrow=classic;html=1;rounded=0;exitX=0;exitY=1;exitDx=0;exitDy=0;entryX=0.5;entryY=0;entryDx=0;entryDy=0;" edge="1" parent="1" source="8" target="9">
          <mxGeometry relative="1" as="geometry">
            <mxPoint x="1160" y="810" as="sourcePoint" />
            <mxPoint x="1260" y="810" as="targetPoint" />
          </mxGeometry>
        </mxCell>
        <mxCell id="LI0zPFGkmaJQVHpyA1I5-108" value="Nocai Printer" style="edgeLabel;resizable=0;html=1;;align=center;verticalAlign=middle;" connectable="0" vertex="1" parent="LI0zPFGkmaJQVHpyA1I5-107">
          <mxGeometry relative="1" as="geometry" />
        </mxCell>
        <mxCell id="LI0zPFGkmaJQVHpyA1I5-109" value="" style="endArrow=classic;html=1;rounded=0;" edge="1" parent="1" source="4">
          <mxGeometry relative="1" as="geometry">
            <mxPoint x="1770" y="600" as="sourcePoint" />
            <mxPoint x="1930" y="460" as="targetPoint" />
          </mxGeometry>
        </mxCell>
        <mxCell id="LI0zPFGkmaJQVHpyA1I5-110" value="Yes" style="edgeLabel;resizable=0;html=1;;align=center;verticalAlign=middle;" connectable="0" vertex="1" parent="LI0zPFGkmaJQVHpyA1I5-109">
          <mxGeometry relative="1" as="geometry" />
        </mxCell>
        <mxCell id="LI0zPFGkmaJQVHpyA1I5-113" value="Yes" style="edgeStyle=orthogonalEdgeStyle;rounded=0;orthogonalLoop=1;jettySize=auto;html=1;entryX=0.5;entryY=0;entryDx=0;entryDy=0;exitX=0.5;exitY=1;exitDx=0;exitDy=0;" edge="1" parent="1" source="LI0zPFGkmaJQVHpyA1I5-111">
          <mxGeometry x="-0.3309" y="-4" relative="1" as="geometry">
            <mxPoint x="1977.5000000000005" y="1093.9999999999995" as="sourcePoint" />
            <mxPoint x="1797" y="1176" as="targetPoint" />
            <Array as="points">
              <mxPoint x="1798" y="1094" />
              <mxPoint x="1798" y="1176" />
            </Array>
            <mxPoint as="offset" />
          </mxGeometry>
        </mxCell>
        <mxCell id="LI0zPFGkmaJQVHpyA1I5-129" value="No" style="edgeStyle=orthogonalEdgeStyle;rounded=0;orthogonalLoop=1;jettySize=auto;html=1;" edge="1" parent="1" source="LI0zPFGkmaJQVHpyA1I5-111" target="LI0zPFGkmaJQVHpyA1I5-114">
          <mxGeometry x="-0.1356" relative="1" as="geometry">
            <mxPoint as="offset" />
          </mxGeometry>
        </mxCell>
        <mxCell id="LI0zPFGkmaJQVHpyA1I5-111" value="Upload New Image?" style="rhombus;strokeWidth=2;whiteSpace=wrap;" vertex="1" parent="1">
          <mxGeometry x="1889.5" y="913" width="181" height="181" as="geometry" />
        </mxCell>
        <mxCell id="LI0zPFGkmaJQVHpyA1I5-132" value="Yes" style="edgeStyle=orthogonalEdgeStyle;rounded=0;orthogonalLoop=1;jettySize=auto;html=1;entryX=0.5;entryY=0;entryDx=0;entryDy=0;" edge="1" parent="1" source="LI0zPFGkmaJQVHpyA1I5-114" target="LI0zPFGkmaJQVHpyA1I5-130">
          <mxGeometry relative="1" as="geometry" />
        </mxCell>
        <mxCell id="LI0zPFGkmaJQVHpyA1I5-114" value="Need to Make Image Edits?" style="rhombus;strokeWidth=2;whiteSpace=wrap;" vertex="1" parent="1">
          <mxGeometry x="1890" y="1200" width="181" height="181" as="geometry" />
        </mxCell>
        <mxCell id="LI0zPFGkmaJQVHpyA1I5-137" value="" style="edgeStyle=orthogonalEdgeStyle;rounded=0;orthogonalLoop=1;jettySize=auto;html=1;" edge="1" parent="1" source="LI0zPFGkmaJQVHpyA1I5-115" target="LI0zPFGkmaJQVHpyA1I5-135">
          <mxGeometry relative="1" as="geometry" />
        </mxCell>
        <mxCell id="LI0zPFGkmaJQVHpyA1I5-115" value="Make Edits, Apply Effects, or Transform Image" style="whiteSpace=wrap;strokeWidth=2;" vertex="1" parent="1">
          <mxGeometry x="1760" y="1560" width="180" height="54" as="geometry" />
        </mxCell>
        <mxCell id="LI0zPFGkmaJQVHpyA1I5-124" value="No" style="edgeStyle=orthogonalEdgeStyle;rounded=0;orthogonalLoop=1;jettySize=auto;html=1;entryX=1;entryY=0.5;entryDx=0;entryDy=0;" edge="1" parent="1" target="LI0zPFGkmaJQVHpyA1I5-90">
          <mxGeometry x="-0.3902" relative="1" as="geometry">
            <mxPoint x="2421.470588235294" y="578.7305882352937" as="sourcePoint" />
            <mxPoint x="2120" y="802" as="targetPoint" />
            <Array as="points">
              <mxPoint x="2422" y="603" />
              <mxPoint x="2301" y="603" />
              <mxPoint x="2301" y="830" />
              <mxPoint x="2120" y="830" />
              <mxPoint x="2070" y="829" />
            </Array>
            <mxPoint as="offset" />
          </mxGeometry>
        </mxCell>
        <mxCell id="LI0zPFGkmaJQVHpyA1I5-125" value="Yes" style="edgeStyle=orthogonalEdgeStyle;rounded=0;orthogonalLoop=1;jettySize=auto;html=1;" edge="1" parent="1" source="LI0zPFGkmaJQVHpyA1I5-118" target="LI0zPFGkmaJQVHpyA1I5-120">
          <mxGeometry relative="1" as="geometry" />
        </mxCell>
        <mxCell id="LI0zPFGkmaJQVHpyA1I5-118" value="Ready to Print?" style="rhombus;strokeWidth=2;whiteSpace=wrap;" vertex="1" parent="1">
          <mxGeometry x="2330" y="424.5" width="181" height="181" as="geometry" />
        </mxCell>
        <mxCell id="LI0zPFGkmaJQVHpyA1I5-119" value="Press the &quot;Print Job&quot; Button to Either Create a PRN File for Nocai Printers or to Directly Print to Network Attached Printers" style="whiteSpace=wrap;strokeWidth=2;" vertex="1" parent="1">
          <mxGeometry x="2330" y="826" width="180" height="120" as="geometry" />
        </mxCell>
        <mxCell id="LI0zPFGkmaJQVHpyA1I5-123" value="" style="edgeStyle=orthogonalEdgeStyle;rounded=0;orthogonalLoop=1;jettySize=auto;html=1;" edge="1" parent="1" source="LI0zPFGkmaJQVHpyA1I5-120" target="LI0zPFGkmaJQVHpyA1I5-119">
          <mxGeometry relative="1" as="geometry" />
        </mxCell>
        <mxCell id="LI0zPFGkmaJQVHpyA1I5-120" value="Press the &quot;Select Jobs&quot; Button, Then Select the Job(s) That You Want to Print" style="whiteSpace=wrap;strokeWidth=2;" vertex="1" parent="1">
          <mxGeometry x="2330" y="717.5" width="180" height="54" as="geometry" />
        </mxCell>
        <mxCell id="LI0zPFGkmaJQVHpyA1I5-136" value="" style="edgeStyle=orthogonalEdgeStyle;rounded=0;orthogonalLoop=1;jettySize=auto;html=1;" edge="1" parent="1" source="LI0zPFGkmaJQVHpyA1I5-130" target="LI0zPFGkmaJQVHpyA1I5-115">
          <mxGeometry relative="1" as="geometry" />
        </mxCell>
        <mxCell id="LI0zPFGkmaJQVHpyA1I5-130" value="Click on the &quot;Edit Image&quot; Button" style="whiteSpace=wrap;strokeWidth=2;" vertex="1" parent="1">
          <mxGeometry x="1760" y="1440" width="180" height="54" as="geometry" />
        </mxCell>
        <mxCell id="LI0zPFGkmaJQVHpyA1I5-131" value="Click the &quot;Save Job&quot; Button" style="whiteSpace=wrap;strokeWidth=2;" vertex="1" parent="1">
          <mxGeometry x="2020" y="1560" width="180" height="54" as="geometry" />
        </mxCell>
        <mxCell id="LI0zPFGkmaJQVHpyA1I5-133" value="No" style="edgeStyle=orthogonalEdgeStyle;rounded=0;orthogonalLoop=1;jettySize=auto;html=1;entryX=0.5;entryY=0;entryDx=0;entryDy=0;exitX=0.5;exitY=1;exitDx=0;exitDy=0;" edge="1" parent="1" source="LI0zPFGkmaJQVHpyA1I5-114" target="LI0zPFGkmaJQVHpyA1I5-131">
          <mxGeometry x="-0.2965" relative="1" as="geometry">
            <mxPoint x="2230" y="1400" as="sourcePoint" />
            <mxPoint x="2100" y="1459" as="targetPoint" />
            <Array as="points">
              <mxPoint x="1980" y="1410" />
              <mxPoint x="2110" y="1410" />
            </Array>
            <mxPoint as="offset" />
          </mxGeometry>
        </mxCell>
        <mxCell id="LI0zPFGkmaJQVHpyA1I5-134" value="" style="edgeStyle=orthogonalEdgeStyle;rounded=0;orthogonalLoop=1;jettySize=auto;html=1;exitX=1;exitY=0.5;exitDx=0;exitDy=0;entryX=0;entryY=0.5;entryDx=0;entryDy=0;" edge="1" parent="1" source="LI0zPFGkmaJQVHpyA1I5-131" target="LI0zPFGkmaJQVHpyA1I5-118">
          <mxGeometry relative="1" as="geometry">
            <mxPoint x="2260" y="1230" as="sourcePoint" />
            <mxPoint x="2260" y="520" as="targetPoint" />
            <Array as="points">
              <mxPoint x="2270" y="1587" />
              <mxPoint x="2270" y="520" />
              <mxPoint x="2330" y="520" />
            </Array>
          </mxGeometry>
        </mxCell>
        <mxCell id="LI0zPFGkmaJQVHpyA1I5-135" value="Click the &quot;Save&quot; Button to Save Changes Made to Image" style="whiteSpace=wrap;strokeWidth=2;" vertex="1" parent="1">
          <mxGeometry x="1760" y="1680" width="180" height="54" as="geometry" />
        </mxCell>
        <mxCell id="LI0zPFGkmaJQVHpyA1I5-138" value="" style="edgeStyle=orthogonalEdgeStyle;rounded=0;orthogonalLoop=1;jettySize=auto;html=1;entryX=0.5;entryY=1;entryDx=0;entryDy=0;exitX=1;exitY=0.5;exitDx=0;exitDy=0;" edge="1" parent="1" source="LI0zPFGkmaJQVHpyA1I5-135" target="LI0zPFGkmaJQVHpyA1I5-131">
          <mxGeometry relative="1" as="geometry">
            <mxPoint x="2080" y="1660" as="sourcePoint" />
            <mxPoint x="2209" y="1719" as="targetPoint" />
          </mxGeometry>
        </mxCell>
      </root>
    </mxGraphModel>
  </diagram>
</mxfile>
